<?xml version="1.0" encoding="iso-8859-1"?>
<!-- Generator: Adobe Illustrator 19.0.0, SVG Export Plug-In . SVG Version: 6.00 Build 0)  -->
<svg version="1.1" id="Capa_1" xmlns="http://www.w3.org/2000/svg" xmlns:xlink="http://www.w3.org/1999/xlink" x="0px" y="0px"
	 viewBox="0 0 496 496" style="enable-background:new 0 0 496 496;" xml:space="preserve">
<path style="fill:#92E0C0;" d="M220,32l-3.624-5.44C208.648,14.968,195.624,8,181.688,8C158.664,8,140,26.664,140,49.688V56
	l-9.464,6.76C101.336,83.616,84,117.296,84,153.192c0,15.048,3.056,29.944,8.984,43.776l10.992,25.648
	c2.656,6.192,4.024,12.856,4.024,19.6c0,9.024-2.448,17.872-7.096,25.608l-8.928,14.88C86.76,291.4,84,301.36,84,311.504
	c0,20.096,10.768,38.648,28.208,48.616L140,376l112,40l56-40L252,80V64C252,46.328,237.672,32,220,32z"/>
<path style="fill:#ECECEC;" d="M244,408l-5.672-6.616c-27.832-32.472-47.728-70.984-58.104-112.48l0,0
	C174.76,267.048,172,244.608,172,222.08V112l-8.184,34.768C147.992,214.032,140,282.896,140,352c0,48.96,33.88,89.912,79.44,100.96
	L260,424l-14.68-14.68L244,408z"/>
<path style="fill:#48C397;" d="M308,376L252,80V64c0-4.024-0.824-7.84-2.184-11.392l-1.352,0.904
	C220.616,72.08,204,103.136,204,136.584c0,26.672,10.384,51.744,29.248,70.608l5.704,5.688c3.248,3.264,5.048,7.6,5.048,12.2
	c0,4.016-1.424,7.936-3.992,11.024l-11.904,14.288C212.56,269.04,204,292.688,204,316.96V320c0,32.552,15.544,63.656,41.592,83.192
	l1.736,1.304l12.224,6.112L308,376z"/>
<path style="fill:#92E0C0;" d="M395.68,179.432l-3.36-5.88c-8.072-14.12-12.32-30.112-12.32-46.384l0,0
	c0-10.048,1.624-20.032,4.8-29.568l8.728-26.192C395.168,66.504,396,61.36,396,56.184C396,29.568,374.432,8,347.816,8
	c-33.04,0-62.08,21.904-71.152,53.672L276,64l-14.232,9.488C240.672,87.552,228,111.232,228,136.584
	c0,20.112,7.992,39.4,22.216,53.624l5.712,5.712c7.728,7.736,12.072,18.224,12.072,29.152c0,9.64-3.384,18.984-9.552,26.392
	l-11.904,14.28C234.56,280.128,228,298.248,228,316.96V320c0,25.184,11.856,48.888,32,64l16,8l72-32l32.712-36.8
	C400.864,300.528,412,271.24,412,240.896l0,0C412,219.336,406.376,198.152,395.68,179.432z"/>
<rect x="212" y="440" style="fill:#ECECEC;" width="64" height="48"/>
<path style="fill:#B6C1CE;" d="M260,424l-14.68-14.68L244,408l-5.672-6.616c-3.112-3.624-6.088-7.36-8.992-11.128
	c-9.864,14-20.832,27.312-33.112,39.592l-9.088,9.088c9.76,6.384,20.648,11.2,32.312,14.032L260,424z"/>
<path style="fill:#ECECEC;" d="M324.952,146.584L308,72v145.912c0,20.016-1.856,39.984-5.544,59.656
	c-12.024,64.12-43.136,123.112-89.272,169.24L212,448l-2.144,2.144C220.56,453.872,232.024,456,244,456c57.44,0,104-46.56,104-104
	C348,282.88,340.272,213.984,324.952,146.584z"/>
<path d="M180.328,358.504l-15.92,1.616c2.352,23.16,14.712,44.128,33.904,57.52l9.16-13.128
	C192.104,393.792,182.2,377.024,180.328,358.504z"/>
<path d="M308,352c0,22.432-11.472,42.848-30.672,54.616l8.36,13.64C309.68,405.56,324,380.04,324,352l-0.016-5.504l-16,0.072
	L308,352z"/>
<path d="M420,240.896c0-22.912-6.008-45.536-17.376-65.44l-3.36-5.872C391.896,156.696,388,142.032,388,127.168
	c0-9.208,1.48-18.312,4.384-27.032l8.744-26.192C403.032,68.192,404,62.216,404,56.176C404,25.2,378.8,0,347.824,0
	c-36.24,0-68.528,24.224-78.704,58.976l-9.12,6.08V64c0-20.552-15.584-37.536-35.552-39.752l-1.416-2.12
	C213.792,8.272,198.336,0,181.688,0C154.288,0,132,22.288,132,49.688v2.192l-6.112,4.368C94.648,78.568,76,114.808,76,153.192
	c0,16.232,3.24,32.016,9.632,46.928l10.992,25.648c2.24,5.224,3.376,10.752,3.376,16.448c0,7.568-2.064,15-5.952,21.488
	l-8.928,14.88c-5.96,9.944-9.12,21.328-9.12,32.92c0,22.904,12.352,44.192,32.24,55.56l27.792,15.88l0.288-0.496
	c9.64,34.04,34.968,61.472,67.68,74.04V496h80v-39.512c38.536-14.808,66.92-50.216,71.376-92.744l31.312-35.224
	C408.168,304.352,420,273.232,420,240.896z M148,352c0-3.472,0.024-6.936,0.064-10.272l0.344-12.632l-16-0.44l-0.344,12.76
	C132.024,344.944,132,348.472,132,352c0,3.552,0.208,7.056,0.536,10.52l-16.352-9.344C101.264,344.656,92,328.688,92,311.504
	c0-8.696,2.368-17.232,6.832-24.688l8.928-14.88c5.4-8.976,8.24-19.256,8.24-29.72c0-7.872-1.568-15.528-4.672-22.76l-10.992-25.648
	C94.808,180.904,92,167.24,92,153.192c0-33.232,16.152-64.6,43.184-83.92L148,60.12V49.688C148,31.112,163.112,16,181.688,16
	c11.288,0,21.768,5.608,28.032,15l6,9H220c13.232,0,24,10.768,24,24v14.048c-15.184,15.496-24,36.344-24,58.536
	c0,22.392,8.72,43.44,24.552,59.288l5.72,5.712c6.272,6.272,9.728,14.616,9.728,23.488c0,7.76-2.736,15.312-7.704,21.272
	l-11.904,14.288C227.24,276.416,220,296.424,220,316.968V320c0,25.704,11.56,50.232,31,66.848c-2.048,3.232-4.296,6.336-6.464,9.488
	l-0.136-0.16c-16.376-19.104-29.976-40.608-40.4-63.544v-6.96c0-33.864,8.008-67.784,23.16-98.088l-14.312-7.16
	c-11.616,23.24-19.24,48.472-22.688,74.24c-0.728-2.568-1.52-5.12-2.168-7.704c-5.12-20.504-7.744-41.584-7.92-62.704l2.248-13.464
	c3.376-20.24,12.832-38.616,27.344-53.136l-11.312-11.312c-7.264,7.256-13.36,15.384-18.352,24.12V112
	c0-4.064-3.048-7.48-7.08-7.944c-4.088-0.52-7.784,2.16-8.712,6.112l-8.176,34.768c-2.592,11.024-4.92,22.12-7.096,33.248
	c-5.192-19.8-14.192-38.52-26.536-54.976l-12.8,9.6c14.864,19.824,24.352,43.296,27.4,67.672l3.04,30.848l0.088-0.008
	c-3.656,27.152-6.12,54.456-7.296,81.752l15.984,0.688c1.872-43.384,6.968-86.808,15.176-129.536v37.864
	c0,23.152,2.848,46.288,8.472,68.76c10.616,42.48,31.288,82.504,59.784,115.736l2.664,3.104
	c-8.344,10.88-17.304,21.352-27.104,31.176C172.768,426.536,148,392.128,148,352z M268,480h-48v-18.656
	c7.744,1.696,15.76,2.656,24,2.656c8.24,0,16.256-0.96,24-2.656V480z M355.816,339.168c-0.2-14.64-0.712-29.272-1.6-43.888
	l3.096-14.504c4.096-24.552,14.152-48.056,29.088-67.976l-12.8-9.6c-9.928,13.24-17.856,27.92-23.592,43.336
	c-2.512-22.136-5.88-44.168-9.968-66.064l1.968-15.872c3.776-22.632,10.88-44.504,21.152-65.024l-14.312-7.16
	c-7.416,14.824-13.152,30.36-17.448,46.408l-15.592-68.6c-0.904-3.968-4.704-6.672-8.696-6.176C303.064,64.504,300,67.928,300,72
	v82.664c-8.672-14.344-21.2-26.208-36.424-33.816l-7.16,14.312c18.336,9.168,32.08,25.728,37.712,45.448L300,201.136v16.784
	c0,5.304-0.144,10.6-0.408,15.896l15.984,0.808c0.28-5.568,0.424-11.136,0.424-16.712v-74.624l1.152,5.072
	C332.312,215.088,340,283.608,340,352c0,52.936-43.064,96-96,96c-6.576,0-13-0.672-19.208-1.936
	c44.072-46.424,73.696-103.904,85.52-167.024c0.952-5.08,1.8-10.184,2.528-15.488c0.52-4.496,1.008-8.936,1.432-13.328l-15.92-1.544
	c-0.424,4.288-0.888,8.632-1.376,12.848c-0.68,4.872-1.48,9.728-2.384,14.568c-1.776,9.48-4.112,18.768-6.712,27.968
	c-2.92-10.048-7.336-19.656-13.224-28.504l-13.312,8.872C270.928,298.824,276,315.56,276,332.84v5.496
	c-4.888,11.856-10.512,23.36-16.8,34.512C244.584,359.32,236,340.08,236,320v-3.032c0-16.808,5.92-33.176,16.688-46.096
	l11.904-14.288C271.944,247.76,276,236.568,276,225.072c0-13.144-5.12-25.504-14.416-34.808l-5.72-5.712
	C243.056,171.736,236,154.704,236,136.584c0-22.736,11.296-43.832,30.208-56.44l16.672-11.12l1.48-5.152
	C292.408,35.68,318.504,16,347.824,16C369.976,16,388,34.024,388,56.176c0,4.328-0.696,8.6-2.056,12.704l-8.736,26.184
	C373.752,105.44,372,116.232,372,127.168c0,17.64,4.624,35.056,13.376,50.36l3.36,5.872C398.72,200.88,404,220.768,404,240.896
	c0,28.416-10.392,55.76-29.264,76.992L355.816,339.168z"/>
<g>
</g>
<g>
</g>
<g>
</g>
<g>
</g>
<g>
</g>
<g>
</g>
<g>
</g>
<g>
</g>
<g>
</g>
<g>
</g>
<g>
</g>
<g>
</g>
<g>
</g>
<g>
</g>
<g>
</g>
</svg>
