<?xml version="1.0" encoding="iso-8859-1"?>
<!-- Generator: Adobe Illustrator 19.0.0, SVG Export Plug-In . SVG Version: 6.00 Build 0)  -->
<svg version="1.1" id="Capa_1" xmlns="http://www.w3.org/2000/svg" xmlns:xlink="http://www.w3.org/1999/xlink" x="0px" y="0px"
	 viewBox="0 0 512 512" style="enable-background:new 0 0 512 512;" xml:space="preserve">
<path style="fill:#11A892;" d="M346.481,144.254c11.794-11.425,19.071-27.396,19.071-44.734c0-30.9-22.63-56.62-52.18-61.46
	c-9.6-22.6-32.16-38.06-57.37-38.06s-47.77,15.46-57.37,38.06c-29.55,4.84-52.18,30.56-52.18,61.46
	c0,17.338,7.277,33.309,19.071,44.734H346.481z"/>
<path style="fill:#0F9887;" d="M346.481,144.254c11.794-11.425,19.071-27.396,19.071-44.734c0-30.9-22.63-56.62-52.18-61.46
	c-9.6-22.6-32.16-38.06-57.37-38.06v144.254H346.481z"/>
<path style="fill:#83E46F;" d="M390.762,233.811l-134.76-116.59l-134.76,116.59c-51.239-2.908-77.098-62.825-44.44-101.97
	c-7.52-23.38-0.58-49.83,18.49-66.32c19.06-16.5,46.24-19.57,68.29-8.76c34.906-21.442,81.271-3.709,92.42,36.15
	c11.122-39.761,57.444-57.635,92.42-36.15c22.05-10.81,49.23-7.74,68.29,8.76c19.07,16.49,26.01,42.94,18.49,66.32
	C467.813,170.93,442.089,230.898,390.762,233.811z"/>
<path style="fill:#2DD729;" d="M390.762,233.811l-134.76-116.59v-24.31c11.122-39.761,57.444-57.635,92.42-36.15
	c22.05-10.81,49.23-7.74,68.29,8.76c19.07,16.49,26.01,42.94,18.49,66.32C467.813,170.93,442.089,230.898,390.762,233.811z"/>
<path style="fill:#BDF052;" d="M256.002,87.88c-37.12,0-72.29,14.11-99.52,40.05c-28.48,27.14-44.43,63.58-44.9,102.6
	c-0.325,25.27,3.632,26.274,13.59,90.06L152.565,512h206.874c31.884-215.648,27.111-198.916,37.873-249.69
	C416.271,172.451,347.89,87.88,256.002,87.88z"/>
<path style="fill:#92D700;" d="M256.002,87.88V512h103.437c31.884-215.648,27.111-198.916,37.873-249.69
	C416.271,172.451,347.89,87.88,256.002,87.88z"/>
<path style="fill:#F0E7DF;" d="M241.002,315.66c-47.61-17.86-49.56-18.3-50.65-18.55l-6.68,29.24c-0.17-0.03-0.45-0.1-0.84-0.22
	c3.46,1.1,35.35,13,58.17,21.58V512h30V347.71c22.82-8.58,54.71-20.48,58.17-21.58c-0.39,0.12-0.67,0.19-0.84,0.22l-6.68-29.24
	c-1.09,0.25-3.04,0.69-50.65,18.55v-35.03c30.71-11.19,74.84-27.17,80.63-29c-0.18,0.04-0.32,0.07-0.42,0.09l-6.46-29.3
	c-1.1,0.25-3.9,0.87-73.75,26.28v-35.97c21.18-7.94,46.17-17.26,50.25-18.62c-0.25,0.07-0.44,0.11-0.56,0.14l-6.68-29.25
	c-1.04,0.23-2.83,0.65-43.01,15.69v-31.24h-30v31.24c-40.18-15.04-41.97-15.46-43.01-15.69l-6.68,29.25
	c-0.12-0.03-0.31-0.07-0.56-0.14c4.08,1.36,29.07,10.68,50.25,18.62v35.97c-69.85-25.41-72.65-26.03-73.75-26.28l-6.46,29.3
	c-0.1-0.02-0.24-0.05-0.42-0.09c5.79,1.83,49.92,17.81,80.63,29L241.002,315.66L241.002,315.66z"/>
<path style="fill:#DFCDBD;" d="M271.002,512V347.71c22.82-8.58,54.71-20.48,58.17-21.58c-0.39,0.12-0.67,0.19-0.84,0.22l-6.68-29.24
	c-1.09,0.25-3.04,0.69-50.65,18.55v-35.03c30.71-11.19,74.84-27.17,80.63-29c-0.18,0.04-0.32,0.07-0.42,0.09l-6.46-29.3
	c-1.1,0.25-3.9,0.87-73.75,26.28v-35.97c21.18-7.94,46.17-17.26,50.25-18.62c-0.25,0.07-0.44,0.11-0.56,0.14l-6.68-29.25
	c-1.04,0.23-2.83,0.65-43.01,15.69v-31.24h-15V512H271.002z"/>
<g>
</g>
<g>
</g>
<g>
</g>
<g>
</g>
<g>
</g>
<g>
</g>
<g>
</g>
<g>
</g>
<g>
</g>
<g>
</g>
<g>
</g>
<g>
</g>
<g>
</g>
<g>
</g>
<g>
</g>
</svg>
